<?xml version="1.0" standalone="no"?>
<!DOCTYPE svg PUBLIC "-//W3C//DTD SVG 20010904//EN"
 "http://www.w3.org/TR/2001/REC-SVG-20010904/DTD/svg10.dtd">
<svg version="1.0" xmlns="http://www.w3.org/2000/svg"
 width="600.000000pt" height="178.000000pt" viewBox="0 0 600.000000 178.000000"
 preserveAspectRatio="xMidYMid meet">
<g transform="translate(0.000000,178.000000) scale(0.100000,-0.100000)"
fill="#000000" stroke="none">
<path d="M772 1357 c-28 -29 -28 -64 -1 -93 20 -21 38 -81 39 -130 0 -15 -10
-26 -30 -34 -40 -17 -96 -73 -122 -123 -18 -35 -22 -62 -25 -172 -4 -141 1
-163 48 -197 24 -18 46 -19 354 -19 366 1 363 0 392 69 11 27 14 65 11 152 -3
100 -6 122 -29 165 -28 55 -38 59 -56 24 -7 -13 -13 -18 -13 -10 0 7 -16 29
-36 47 -22 21 -30 34 -20 34 27 0 28 20 1 32 -26 12 -27 14 -20 72 4 42 14 69
31 89 30 36 31 67 1 95 -30 28 -71 28 -98 1 -17 -17 -20 -29 -16 -63 4 -28 -2
-60 -16 -101 l-22 -60 -110 -3 -110 -3 -22 63 c-15 44 -20 76 -16 104 4 34 1
46 -16 63 -28 28 -72 27 -99 -2z m445 -403 c69 -56 81 -149 27 -214 -34 -40
-44 -38 -44 8 0 37 -1 38 -30 34 -24 -3 -32 0 -41 22 -9 20 -9 29 1 41 10 12
9 15 -5 15 -39 0 -55 -29 -55 -102 l0 -68 -35 0 -35 0 0 51 c0 33 -4 48 -11
44 -16 -10 -56 3 -63 21 -3 8 -1 24 4 35 9 16 7 19 -9 19 -31 0 -51 -38 -51
-97 0 -29 -4 -53 -9 -53 -15 0 -60 59 -67 86 -13 50 3 105 39 142 45 44 77 52
224 49 120 -3 123 -4 160 -33z"/>
<path d="M2120 1220 c-165 -6 -190 -12 -232 -56 -45 -49 -50 -88 -46 -349 3
-230 4 -242 26 -277 41 -66 92 -82 275 -86 l157 -4 0 86 0 86 -140 0 -140 0 0
220 0 220 140 0 141 0 -3 82 c-2 45 -7 82 -13 83 -5 0 -80 -2 -165 -5z"/>
<path d="M2680 1222 c-6 -2 -10 -147 -10 -388 l0 -384 90 0 90 0 0 384 0 384
-80 4 c-44 2 -85 2 -90 0z"/>
<path d="M3172 1223 l-32 -4 2 -382 3 -382 85 0 85 0 3 138 3 137 63 0 64 0
47 -140 47 -140 82 0 c46 0 85 3 88 6 13 12 -84 254 -111 278 -17 15 -15 19
25 60 61 64 79 165 53 288 -14 64 -65 120 -124 137 -37 10 -308 13 -383 4z
m326 -155 c12 -12 17 -143 6 -172 -5 -13 -23 -16 -95 -16 l-89 0 0 100 0 100
83 0 c51 0 88 -5 95 -12z"/>
<path d="M5023 1214 c-17 -9 -39 -31 -48 -50 -13 -27 -185 -686 -185 -709 0
-3 37 -5 83 -3 l82 3 21 85 20 85 122 3 c67 1 122 -1 123 -5 0 -4 8 -44 17
-88 l17 -80 88 -3 c48 -1 87 1 87 6 0 4 -31 154 -69 332 -38 179 -74 351 -81
383 l-11 57 -117 0 c-86 0 -126 -5 -149 -16z m156 -261 c12 -65 25 -130 28
-145 l6 -28 -92 0 c-50 0 -91 3 -91 8 0 9 58 251 65 270 2 6 17 12 33 12 28 0
28 -1 51 -117z"/>
<path d="M4009 1216 c-2 -2 -3 -39 -1 -81 l4 -77 81 4 82 3 3 -308 2 -308 88
3 87 3 3 308 2 308 83 -3 82 -3 3 78 3 77 -259 0 c-142 0 -261 -2 -263 -4z"/>
<path d="M1328 1078 c-15 -15 -15 -17 1 -32 16 -15 19 -15 33 1 13 16 13 20
-1 33 -14 13 -18 13 -33 -2z"/>
<path d="M571 1066 c-8 -9 -9 -62 -4 -180 6 -152 8 -166 25 -166 17 0 18 12
18 180 0 146 -3 180 -14 180 -7 0 -19 -6 -25 -14z"/>
<path d="M1454 1067 c-3 -8 -4 -88 -2 -178 3 -162 3 -164 26 -167 l22 -3 -2
178 c-3 160 -5 178 -21 181 -9 2 -20 -3 -23 -11z"/>
<path d="M842 533 c-17 -31 -42 -125 -36 -134 3 -5 106 -9 229 -9 170 0 224 3
228 13 2 6 -6 41 -18 77 l-22 65 -186 3 c-170 2 -187 1 -195 -15z m93 -63 c0
-51 -29 -48 -33 3 -3 33 -1 38 15 35 13 -2 18 -12 18 -38z m73 3 c-2 -21 -7
-38 -13 -38 -5 0 -11 17 -13 38 -3 29 0 37 13 37 13 0 16 -8 13 -37z m80 0
c-2 -21 -7 -38 -13 -38 -5 0 -11 17 -13 38 -3 29 0 37 13 37 13 0 16 -8 13
-37z m77 -4 c0 -24 -5 -34 -15 -34 -16 0 -25 37 -16 62 10 26 31 8 31 -28z"/>
<path d="M1392 490 c-44 -32 -102 -104 -102 -127 0 -36 91 21 140 89 52 71 33
90 -38 38z"/>
<path d="M724 478 c-31 -37 -74 -124 -74 -150 0 -28 26 -21 55 13 53 63 92
169 62 169 -9 0 -28 -15 -43 -32z"/>
</g>
</svg>
