<?xml version="1.0" standalone="no"?>
<!DOCTYPE svg PUBLIC "-//W3C//DTD SVG 20010904//EN"
 "http://www.w3.org/TR/2001/REC-SVG-20010904/DTD/svg10.dtd">
<svg version="1.0" xmlns="http://www.w3.org/2000/svg"
 width="232.000000pt" height="269.000000pt" viewBox="0 0 232.000000 269.000000"
 preserveAspectRatio="xMidYMid meet">
<g transform="translate(0.000000,269.000000) scale(0.100000,-0.100000)"
fill="#000000" stroke="none">
<path d="M808 2069 c-56 -42 -57 -120 -1 -165 21 -18 28 -36 39 -110 7 -49 13
-93 14 -99 0 -5 -20 -18 -43 -28 -63 -26 -148 -106 -184 -174 -42 -78 -53
-148 -53 -327 1 -196 18 -241 113 -281 31 -13 107 -15 512 -15 447 0 478 1
513 19 43 22 63 43 87 90 15 29 16 59 13 225 -4 190 -4 192 -35 256 -17 36
-37 73 -45 84 -14 17 -15 17 -30 -6 -9 -14 -18 -34 -20 -47 -5 -35 -22 -27
-29 14 -7 43 -37 73 -81 82 -41 8 -43 20 -4 27 19 4 39 13 46 21 10 11 5 17
-25 30 -21 8 -42 15 -47 15 -10 0 -9 16 14 140 10 50 19 70 42 91 25 22 29 33
29 74 0 41 -4 52 -31 77 -63 55 -153 27 -171 -53 -5 -23 -4 -46 4 -65 10 -24
8 -37 -11 -84 -13 -30 -30 -76 -40 -102 l-17 -48 -167 0 -167 0 -22 63 c-12
34 -30 80 -39 102 -16 36 -17 44 -4 80 13 37 13 44 -2 77 -28 59 -105 77 -158
37z m120 -70 c5 -21 7 -41 4 -44 -13 -13 -12 -52 2 -90 8 -22 25 -66 36 -97
34 -91 54 -99 241 -97 151 1 153 1 181 27 15 15 28 32 28 38 0 6 11 37 25 68
26 59 39 134 25 151 -4 6 -3 26 4 45 23 72 116 60 116 -15 0 -19 -4 -35 -8
-35 -5 0 -15 -12 -23 -27 -8 -16 -17 -31 -22 -34 -4 -3 -10 -23 -12 -45 -3
-21 -8 -46 -10 -54 -14 -44 -8 -101 13 -123 16 -17 19 -26 11 -34 -17 -17 -2
-60 24 -74 22 -12 42 -33 86 -89 21 -28 25 -30 40 -15 62 55 91 -37 91 -283
l0 -171 -31 -36 c-17 -19 -47 -40 -67 -45 -33 -10 -942 -9 -979 0 -7 2 -27 19
-45 37 l-33 34 0 187 c0 210 6 242 62 324 37 54 73 95 73 81 0 -4 6 2 14 13 8
10 18 19 23 19 19 1 74 37 87 58 11 17 12 39 5 97 -11 104 -15 115 -49 150
-32 32 -38 45 -17 35 6 -4 4 0 -6 9 -18 14 -18 16 -1 45 10 17 24 31 31 31 7
0 13 4 13 9 0 5 13 4 29 -2 22 -8 32 -20 39 -48z"/>
<path d="M1035 1524 c-22 -3 -47 -7 -55 -10 -8 -3 -16 -5 -18 -4 -9 3 -63 -34
-95 -66 -101 -101 -104 -257 -8 -366 40 -46 77 -56 101 -28 17 20 37 121 26
138 -3 5 1 9 9 9 8 0 12 -3 10 -7 -2 -4 14 -17 36 -31 22 -13 47 -29 55 -35 9
-5 17 -28 20 -49 5 -52 33 -80 84 -80 65 0 84 28 89 125 l3 80 39 -35 c22 -20
44 -33 50 -29 12 7 38 -24 39 -47 0 -30 70 -76 70 -46 0 5 3 8 6 4 11 -11 77
58 97 103 24 55 27 159 4 210 -22 50 -85 112 -140 139 -42 21 -64 23 -215 26
-92 2 -185 1 -207 -1z m412 -62 c87 -45 126 -108 127 -202 0 -71 -13 -106 -65
-165 -46 -52 -55 -46 -51 37 4 71 3 72 -15 55 -41 -36 -103 -9 -103 44 0 16 9
37 21 47 18 17 18 20 4 26 -25 9 -84 -23 -100 -55 -10 -19 -15 -59 -15 -124
l0 -95 -51 0 -52 0 5 85 c4 78 -4 108 -18 70 -9 -23 -58 -18 -83 9 -27 29 -23
69 9 86 11 6 18 15 15 19 -9 15 -77 -7 -104 -33 -24 -25 -26 -33 -25 -116 0
-50 -3 -90 -7 -90 -16 0 -81 73 -95 105 -19 46 -18 148 2 188 35 69 95 114
169 128 22 4 119 7 215 5 156 -3 179 -5 217 -24z"/>
<path d="M1670 1660 c0 -10 -11 -27 -24 -37 l-23 -18 31 -28 c18 -18 32 -24
34 -17 2 6 17 20 34 30 l29 18 -24 6 c-16 4 -29 17 -35 36 -12 34 -22 39 -22
10z"/>
<path d="M498 1619 c-16 -9 -18 -33 -18 -274 l0 -265 26 -6 c14 -4 29 -3 34 2
10 11 16 526 6 543 -9 14 -25 14 -48 0z"/>
<path d="M1855 1621 c-6 -6 -8 -115 -5 -278 l5 -268 30 0 30 0 3 264 c2 186
-1 268 -9 277 -13 16 -41 18 -54 5z"/>
<path d="M906 793 c-7 -16 -25 -66 -40 -112 -19 -63 -23 -88 -15 -98 17 -19
681 -19 698 1 8 10 4 37 -20 112 -17 54 -36 105 -41 112 -8 9 -78 12 -289 12
l-278 0 -15 -27z m58 -51 c-12 -24 -10 -61 4 -87 17 -29 8 -42 -27 -41 -33 1
-36 3 -35 31 2 38 8 62 17 71 4 4 7 18 7 31 0 14 4 21 10 18 6 -3 10 -2 10 4
0 6 6 8 14 5 12 -5 12 -9 0 -32z m521 -45 c19 -53 21 -68 10 -77 -17 -14 -72
-9 -72 7 0 6 4 10 9 7 4 -3 9 7 10 23 1 15 2 37 3 48 1 11 -2 28 -7 38 -10 21
0 43 13 30 5 -5 20 -39 34 -76z m-437 0 c3 -55 2 -57 -22 -57 -28 0 -38 20
-33 67 5 40 15 55 35 51 13 -2 18 -17 20 -61z m120 2 c2 -45 0 -58 -14 -63
-26 -10 -44 13 -44 58 0 45 15 68 40 64 11 -2 16 -19 18 -59z m120 5 c2 -36
-1 -54 -13 -64 -23 -19 -45 5 -45 50 0 54 9 72 34 68 18 -3 21 -11 24 -54z
m114 44 c22 -64 -3 -136 -37 -108 -15 13 -22 100 -8 113 11 12 41 8 45 -5z"/>
<path d="M1789 750 c-73 -39 -189 -171 -189 -217 0 -32 19 -29 87 16 79 53
163 155 163 199 0 27 -13 27 -61 2z"/>
<path d="M757 740 c-41 -33 -105 -137 -127 -207 -30 -97 -9 -111 58 -39 74 81
143 250 106 263 -6 2 -22 -6 -37 -17z"/>
</g>
</svg>
