<?xml version="1.0" standalone="no"?>
<!DOCTYPE svg PUBLIC "-//W3C//DTD SVG 20010904//EN"
 "http://www.w3.org/TR/2001/REC-SVG-20010904/DTD/svg10.dtd">
<svg version="1.0" xmlns="http://www.w3.org/2000/svg"
 width="232.000000pt" height="269.000000pt" viewBox="0 0 232.000000 269.000000"
 preserveAspectRatio="xMidYMid meet">
<g transform="translate(0.000000,269.000000) scale(0.100000,-0.100000)"
fill="#000000" stroke="none">
<path d="M807 2070 c-54 -43 -55 -121 -2 -165 20 -16 28 -38 40 -105 8 -47 15
-92 14 -100 0 -8 -23 -26 -52 -39 -77 -36 -158 -123 -192 -207 -27 -65 -29
-80 -33 -247 -4 -150 -2 -185 13 -222 19 -52 61 -90 113 -105 23 -6 212 -10
500 -10 490 0 504 1 555 48 49 44 57 81 57 260 0 125 -4 182 -16 223 -20 68
-63 149 -79 149 -7 0 -22 -19 -33 -42 l-20 -43 -8 30 c-12 48 -32 72 -77 90
l-41 16 45 21 44 20 -48 24 c-43 22 -48 28 -43 52 2 15 10 59 18 97 10 55 19
75 40 93 48 41 47 115 -3 161 -35 33 -108 29 -141 -6 -32 -36 -40 -69 -27
-114 10 -32 7 -48 -26 -138 l-37 -101 -169 0 c-93 0 -169 2 -169 4 0 2 -16 48
-35 102 -31 87 -34 102 -24 132 15 45 -2 104 -36 126 -34 22 -97 20 -128 -4z
m614 -594 c122 -43 192 -188 145 -300 -16 -39 -83 -116 -100 -116 -7 0 -10 21
-8 65 3 42 0 65 -7 65 -6 0 -11 -4 -11 -10 0 -16 -62 -11 -82 7 -22 20 -23 70
-1 95 15 17 15 18 -11 18 -18 0 -40 -12 -62 -34 l-34 -34 0 -101 0 -101 -50 0
-50 0 0 82 c0 64 -3 79 -12 70 -19 -19 -59 -14 -85 10 -29 27 -29 55 0 86 l22
25 -39 -6 c-67 -11 -80 -33 -84 -142 -3 -59 -8 -95 -15 -95 -6 0 -29 20 -52
44 -69 71 -82 179 -33 266 24 43 97 100 141 110 56 14 388 11 428 -4z"/>
<path d="M1670 1661 c0 -8 -9 -24 -19 -35 -19 -21 -19 -21 3 -47 l22 -26 33
28 c31 26 32 27 12 34 -12 3 -28 18 -36 33 -8 15 -14 21 -15 13z"/>
<path d="M498 1619 c-16 -9 -18 -33 -18 -268 0 -274 2 -288 47 -279 17 3 18
24 24 268 6 294 3 312 -53 279z"/>
<path d="M1857 1623 c-4 -3 -7 -127 -7 -274 0 -238 2 -268 16 -273 9 -4 25 -4
35 -1 18 6 19 22 19 269 0 190 -3 265 -12 274 -13 13 -41 16 -51 5z"/>
<path d="M917 802 c-9 -10 -23 -38 -31 -63 -47 -148 -45 -138 -29 -154 21 -22
674 -22 692 -1 9 11 5 36 -19 110 -17 52 -38 102 -46 111 -13 13 -56 15 -283
15 -247 0 -269 -1 -284 -18z m128 -102 c0 -46 -3 -55 -19 -58 -23 -5 -36 14
-36 51 0 38 18 69 38 65 13 -3 17 -15 17 -58z m123 7 c4 -57 -11 -82 -39 -66
-14 7 -19 21 -19 52 0 81 53 94 58 14z m117 -7 c0 -52 -1 -55 -25 -55 -22 0
-25 5 -28 43 -3 47 11 75 37 70 12 -3 16 -16 16 -58z m121 35 c3 -14 3 -41 0
-61 -6 -29 -11 -35 -29 -32 -19 3 -22 10 -25 52 -2 32 1 52 10 57 23 15 37 10
44 -16z"/>
<path d="M1751 725 c-104 -76 -189 -215 -132 -215 27 0 131 79 173 131 43 54
58 81 58 108 0 33 -32 25 -99 -24z"/>
<path d="M745 728 c-70 -66 -153 -244 -126 -271 19 -19 57 9 98 70 63 94 99
186 86 219 -8 21 -20 17 -58 -18z"/>
</g>
</svg>
